<svg xmlns="http://www.w3.org/2000/svg" viewBox="0 0 672 672">
  <g transform="translate(80,80)">
    <path fill="#E8A000" d="M102.49,0c0,27.414,0,104.166,0,137.062c0,112.391,99.33,156.25,153.51,156.25c54.18,0,153.51,-43.859,153.51,-156.25c0,-32.896,0,-109.648,0,-137.062H102.49zM256.289,50.551l-68.164,29.768v98.474l-0.049,19.53c-0.526,-0.112,-47.274,-10.112,-47.274,-78.391c0,-28.17,0,-69.6,0,-69.6h60.385L256.289,50.551z"/>
    <path fill="#E8A000" d="M315.473,400.717L291.681,367.482L279.791,318.506L256,322.004L232.209,318.506L220.314,367.482L205.347,388.394L196.527,400.476L196.699,400.476L196.527,400.717z"/>
    <path fill="#E8A000" d="M366.93,432.24L366.93,432L145.07,432L145.07,511.598L145.07,511.76L145.07,511.76L145.07,512L366.93,512L366.93,432.402L366.93,432.24z"/>
    <path fill="#E8A000" d="M511.638,96.668c-0.033,-1.268,-0.068,-2.336,-0.068,-3.174V45.1h-73.889v38.736h35.152v9.658c0,1.127,0.037,2.557,0.086,4.258c0.389,13.976,1.303,46.707,-21.545,70.203c-5.121,5.266,-11.221,9.787,-18.219,13.613c-3.883,17.635,-10.109,33.564,-18.104,47.814c26.561,-6.406,48.026,-17.898,64.096,-34.422C513.402,159.734,512.121,113.918,511.638,96.668z"/>
    <path fill="#E8A000" d="M60.625,167.955c-22.848,-23.496,-21.934,-56.227,-21.541,-70.203c0.047,-1.701,0.082,-3.131,0.082,-4.258v-9.658h34.842h0.07v0h0.24V45.1H0.43v48.394c0,0.838,-0.032,1.906,-0.068,3.174c-0.482,17.25,-1.76,63.066,32.494,98.293c16.068,16.524,37.531,28.014,64.092,34.422c-7.996,-14.25,-14.22,-30.182,-18.103,-47.816C71.846,177.74,65.746,173.221,60.625,167.955z"/>
  </g>
</svg>
